<svg width="49" height="48" viewBox="0 0 49 48" fill="none" xmlns="http://www.w3.org/2000/svg">
<g id="noto-v1:money-bag">
<path id="Vector" d="M26.0089 2.01762C26.3427 1.28637 26.9652 1.08012 27.4827 1.05762C28.2702 1.02012 29.0952 1.56387 29.8714 2.20512C30.4227 2.82762 31.0827 3.30762 31.8477 3.64512C32.3764 3.83262 32.9014 3.87012 33.4339 3.84387C34.1839 3.80637 34.9452 3.64137 35.6989 3.60387L35.7402 3.60012L36.0814 3.57012C36.9439 3.52887 37.7577 3.73137 38.5302 4.17762C39.2389 4.82262 39.5502 5.62512 39.4527 6.59262C39.2877 7.39137 39.4302 8.12262 39.8764 8.78637C40.6452 9.32637 41.4514 9.79887 42.2989 10.2001C43.1764 10.6801 43.7277 11.4039 43.9677 12.3676C44.0539 13.3876 43.5814 14.0401 42.5614 14.3214C41.2339 14.6551 39.4489 14.6551 37.9452 15.8176C35.7477 17.6514 35.0577 19.5001 34.1014 19.7814C33.6327 19.2489 30.7077 16.9876 25.8027 15.9039C24.9252 12.8776 24.3927 5.57262 26.0089 2.01762Z" fill="#FCC21B"/>
<path id="Vector_2" d="M30.9589 15.2589C31.8214 13.5339 34.2777 10.5001 34.8664 11.1001C35.4477 11.7526 34.1089 15.1426 33.1677 16.8039C32.8339 16.4514 31.7577 15.7126 31.2889 15.5889" fill="#D19B15"/>
<path id="Vector_3" d="M35.2976 20.7826C34.7914 20.7826 34.2964 20.5239 34.0151 20.0589C31.4351 15.8139 25.5926 16.2601 25.5364 16.2676C24.7114 16.3351 23.9839 15.7276 23.9126 14.9064C23.8778 14.5114 24.0005 14.1186 24.2542 13.8137C24.5078 13.5088 24.8716 13.3166 25.2664 13.2789C25.5814 13.2489 33.0176 12.6376 36.5801 18.5064C37.0114 19.2151 36.7826 20.1376 36.0776 20.5651C35.8301 20.7114 35.5639 20.7826 35.2976 20.7826Z" fill="#8D6E63"/>
<path id="Vector_4" d="M36.3702 45.7763C29.9464 47.3588 21.0177 47.2463 14.6389 45.9863C8.66891 44.8051 4.09766 41.2838 4.62266 34.3538C5.15516 27.3413 9.80141 20.7376 16.1914 17.8276C22.3752 15.0113 30.6739 13.6388 35.0464 20.0288C36.1339 21.6188 38.2114 25.1476 38.3089 26.8801C38.3164 27.0188 38.3239 27.1426 38.3539 27.2626C38.3614 27.6976 38.5377 28.1363 38.9652 28.4588C41.7139 30.5401 43.7164 33.3001 44.0839 37.0838C44.5189 41.5951 40.2514 44.8201 36.3702 45.7763Z" fill="#FCC21B"/>
<path id="Vector_5" d="M30.6739 34.1739C29.8939 32.9064 28.4577 31.5301 27.1002 30.3489L28.1539 27.4314C29.0914 28.1626 29.9164 28.8489 30.5614 29.4414C30.6664 29.5426 30.8314 29.5501 30.9514 29.4639L33.3664 27.6676C33.4339 27.6151 33.4752 27.5401 33.4864 27.4539C33.4904 27.4117 33.4855 27.3693 33.4719 27.3292C33.4583 27.2891 33.4364 27.2524 33.4077 27.2214C32.6914 26.4226 31.1389 25.0239 29.4402 23.8726L30.0589 22.1626C30.1302 21.9676 30.0327 21.7539 29.8339 21.6789L26.9952 20.6514C26.8002 20.5801 26.5827 20.6814 26.5114 20.8764L26.0502 22.1551C23.3764 21.3264 21.2539 21.5926 19.5889 22.9839C18.2839 24.0789 17.7214 25.6426 18.1189 27.0601C18.5239 28.5714 19.7089 29.6064 21.2089 30.9151L21.4002 31.0839C21.7489 31.3839 22.1202 31.6951 22.4839 32.0064L21.2014 35.5539C19.5177 34.4514 18.1077 32.9251 17.8677 32.5914C17.8227 32.5294 17.7559 32.4868 17.6807 32.4721C17.6055 32.4575 17.5276 32.472 17.4627 32.5126L14.6802 34.2901C14.6127 34.3314 14.5639 34.4026 14.5452 34.4851C14.5302 34.5639 14.5452 34.6464 14.5902 34.7139C15.4264 35.9739 16.7952 37.3839 18.2539 38.4864C18.6027 38.7489 19.1277 39.1164 19.7727 39.5026L19.2889 40.8339C19.2214 41.0289 19.3189 41.2426 19.5139 41.3139L22.3564 42.3451C22.5514 42.4164 22.7689 42.3151 22.8402 42.1201L23.2414 41.0101C25.8364 41.7151 28.1164 41.3064 29.8789 39.7989C31.5814 38.3401 31.8739 36.2926 30.6739 34.1739ZM24.7902 25.6501L24.0139 27.7989C23.2902 27.2364 22.9039 26.8126 23.1777 26.2051C23.4627 25.5826 24.1714 25.5414 24.7902 25.6501ZM25.5589 34.6126C26.0577 35.0964 26.4102 35.5426 26.4439 35.9514C26.4589 36.1839 26.3727 36.4089 26.1702 36.6414C25.8177 37.0501 25.2552 37.1289 24.6739 37.0576L25.5589 34.6126Z" fill="#424242"/>
</g>
</svg>
