<svg width="49" height="48" viewBox="0 0 49 48" fill="none" xmlns="http://www.w3.org/2000/svg">
<g id="material-symbols:security">
<path id="Vector" d="M24.5977 44.0002C19.9643 42.8336 16.139 40.1749 13.1217 36.0242C10.1043 31.8736 8.59632 27.2656 8.59766 22.2002V10.0002L24.5977 4.00024L40.5977 10.0002V22.2002C40.5977 27.2669 39.089 31.8756 36.0717 36.0262C33.0543 40.1769 29.2297 42.8349 24.5977 44.0002ZM24.5977 39.8002C27.831 38.8002 30.531 36.8249 32.6977 33.8742C34.8643 30.9236 36.131 27.6322 36.4977 24.0002H24.5977V8.25024L12.5977 12.7502V23.1002C12.5977 23.3336 12.631 23.6336 12.6977 24.0002H24.5977V39.8002Z" fill="#3076DE"/>
</g>
</svg>
