<svg width="32" height="25" viewBox="0 0 32 25" fill="none" xmlns="http://www.w3.org/2000/svg">
<g id="logos:discord-icon" clip-path="url(#clip0_1_32)">
<path id="Vector" d="M26.7163 2.50165C24.6915 1.55428 22.5495 0.881129 20.3468 0.5C20.0724 0.99604 19.7518 1.66322 19.5308 2.19399C17.1558 1.83688 14.8028 1.83688 12.4715 2.19399C12.2506 1.66334 11.9228 0.99604 11.6459 0.5C9.44098 0.881305 7.2971 1.55617 5.27138 2.50659C1.24034 8.59813 0.147561 14.5382 0.693892 20.3942C3.36754 22.3908 5.95858 23.6037 8.50595 24.3974C9.13904 23.5268 9.69867 22.605 10.1791 21.6417C9.26446 21.2935 8.38273 20.8644 7.54438 20.3595C7.765 20.1959 7.98043 20.0255 8.19033 19.8485C13.2704 22.2246 18.7901 22.2246 23.8096 19.8485C24.0205 20.0243 24.2358 20.1947 24.4555 20.3595C23.6158 20.8657 22.7324 21.2957 21.8159 21.6442C22.2991 22.6115 22.8577 23.5341 23.4891 24.3998C26.0389 23.6062 28.6323 22.3933 31.306 20.3942C31.9471 13.6057 30.2109 7.72014 26.7163 2.50165ZM10.8712 16.7929C9.34619 16.7929 8.09554 15.3691 8.09554 13.6355C8.09554 11.9018 9.31954 10.4757 10.8712 10.4757C12.423 10.4757 13.6736 11.8993 13.6469 13.6355C13.6493 15.3691 12.423 16.7929 10.8712 16.7929ZM21.1286 16.7929C19.6036 16.7929 18.3531 15.3691 18.3531 13.6355C18.3531 11.9018 19.5769 10.4757 21.1286 10.4757C22.6804 10.4757 23.931 11.8993 23.9043 13.6355C23.9043 15.3691 22.6804 16.7929 21.1286 16.7929Z" fill="#5865F2"/>
</g>
<defs>
<clipPath id="clip0_1_32">
<rect width="30.88" height="24" fill="white" transform="translate(0.559998 0.5)"/>
</clipPath>
</defs>
</svg>
