<svg width="24" height="25" viewBox="0 0 24 25" fill="none" xmlns="http://www.w3.org/2000/svg">
<g id="Telegram svg" clip-path="url(#clip0_1_22)">
<g id="Group">
<g id="Artboard">
<path id="Oval" d="M12.0094 24.5187C18.6419 24.5187 24.0187 19.1419 24.0187 12.5094C24.0187 5.87677 18.6419 0.5 12.0094 0.5C5.37677 0.5 0 5.87677 0 12.5094C0 19.1419 5.37677 24.5187 12.0094 24.5187Z" fill="url(#paint0_linear_1_22)"/>
<path id="Path-3" fill-rule="evenodd" clip-rule="evenodd" d="M5.4248 12.3783C8.92285 10.8444 11.2611 9.85296 12.4396 9.3666C15.7693 7.98235 16.4614 7.73917 16.9104 7.72046C17.0039 7.72046 17.2284 7.73917 17.378 7.8514C17.4903 7.94493 17.5277 8.07588 17.5464 8.16941C17.5651 8.26294 17.5838 8.46871 17.5651 8.63706C17.378 10.5264 16.6111 15.1468 16.1995 17.2606C16.0312 18.1585 15.6945 18.4578 15.3765 18.4952C14.6843 18.5513 14.1419 18.0276 13.4684 17.5973C12.4209 16.9052 11.8223 16.4749 10.7935 15.8015C9.61498 15.0159 10.3819 14.5856 11.0554 13.8935C11.2237 13.7064 14.3102 10.9192 14.3663 10.6573C14.3663 10.6199 14.385 10.5077 14.3102 10.4516C14.2354 10.3954 14.1419 10.4141 14.067 10.4329C13.9548 10.4516 12.2713 11.5739 8.99767 13.7813C8.51131 14.118 8.08107 14.2676 7.68824 14.2676C7.258 14.2676 6.43493 14.0244 5.81763 13.8187C5.06938 13.5755 4.47078 13.4445 4.5269 13.033C4.56432 12.8272 4.86361 12.6028 5.4248 12.3783Z" fill="white"/>
</g>
</g>
</g>
<defs>
<linearGradient id="paint0_linear_1_22" x1="0" y1="12.5007" x2="24.0013" y2="12.5007" gradientUnits="userSpaceOnUse">
<stop stop-color="#2AABEE"/>
<stop offset="1" stop-color="#229ED9"/>
</linearGradient>
<clipPath id="clip0_1_22">
<rect width="24" height="24" fill="white" transform="translate(0 0.5)"/>
</clipPath>
</defs>
</svg>
