<svg width="1440" height="165" viewBox="0 0 1440 165" fill="none" xmlns="http://www.w3.org/2000/svg">
<path d="M1449.83 58.3691C1444.55 58.6307 1443.34 54.7943 1443.79 48.313C1444.2 42.3403 1443.88 36.2805 1443.88 28.7529C1441.41 30.2061 1439.74 31.2233 1438.12 32.3132C1417.69 45.9152 1396.67 57.8169 1373.74 59.43C1355.25 60.6096 1336.72 60.3573 1318.25 58.6743C1276.1 55.0704 1235.31 41.1196 1194.59 26.7039C1161.3 14.9765 1127.78 4.78957 1093.34 1.46173C1069.65 -0.83783 1045.89 3.9592 1023.72 15.5142C986.67 34.4058 950.836 57.0322 914.715 78.8738C862.349 110.539 807.61 128.573 749.848 125.376C723.13 123.923 697.172 115.829 671.833 105.235C621.605 84.2361 571.868 61.3337 521.725 40.0878C502.542 31.9644 482.921 25.6285 463.321 19.5686C439.061 12.0701 415.08 17.4906 391.473 25.643C378.734 30.0026 366.262 35.9898 353.79 41.6283C292.8 69.5588 230.645 76.7957 167.357 60.2147C146.229 54.678 125.379 47.1359 104.497 39.8699C67.4667 27.1543 30.18 26.6021 -7.34173 34.711C-8.20737 34.8999 -9.10505 34.8854 -9.99207 34.9726V164.308H1449.84L1449.83 58.3691ZM1153.49 26.6021C1118.71 17.6649 1083.81 19.0019 1048.87 22.5913C1084.07 11.5615 1119.03 11.1546 1153.49 26.6021ZM295.408 83.466L295.75 83.96C289.167 87.6512 282.712 91.8945 275.968 94.9172C254.595 104.537 233.413 94.9172 212.157 92.1416C217.212 91.1371 222.326 90.7964 227.428 91.1243C239.302 91.7783 251.25 94.2487 262.984 92.999C273.906 91.8073 284.614 86.7793 295.408 83.466ZM127.869 68.1783L75.3857 52.3238C94.0023 52.1204 110.994 55.0122 127.869 68.1637V68.1783ZM1367.82 85.8347C1353.99 92.0689 1311.11 86.9972 1294.96 77.348C1319.06 83.059 1343.19 88.4068 1367.82 85.8347ZM965.574 67.1755C965.371 66.5507 965.178 65.9113 964.986 65.2718C980.749 54.7361 995.978 42.3984 1013.7 38.0098L965.574 67.1755ZM779.226 146.23C768.881 153.728 724.573 146.462 711.546 139.865C733.935 145.416 756.431 148.86 779.226 146.23ZM409.544 37.6465L378.231 46.9034C386.161 36.7019 400.674 32.2406 409.544 37.6465ZM1041.26 52.5563C1048.74 47.9642 1056.33 42.8344 1064.71 47.1359L1064.95 49.9406L1041.26 52.5563Z" fill="#FF8227"/>
</svg>
