<svg width="49" height="48" viewBox="0 0 49 48" fill="none" xmlns="http://www.w3.org/2000/svg">
<g id="mdi:web">
<path id="Vector" d="M33.0364 28.0002C33.1964 26.6802 33.3164 25.3602 33.3164 24.0002C33.3164 22.6402 33.1964 21.3202 33.0364 20.0002H39.7964C40.1164 21.2802 40.3164 22.6202 40.3164 24.0002C40.3164 25.3802 40.1164 26.7202 39.7964 28.0002M29.4964 39.1202C30.6964 36.9002 31.6164 34.5002 32.2564 32.0002H38.1564C36.2187 35.3368 33.1446 37.8642 29.4964 39.1202ZM28.9964 28.0002H19.6364C19.4364 26.6802 19.3164 25.3602 19.3164 24.0002C19.3164 22.6402 19.4364 21.3002 19.6364 20.0002H28.9964C29.1764 21.3002 29.3164 22.6402 29.3164 24.0002C29.3164 25.3602 29.1764 26.6802 28.9964 28.0002ZM24.3164 39.9202C22.6564 37.5202 21.3164 34.8602 20.4964 32.0002H28.1364C27.3164 34.8602 25.9764 37.5202 24.3164 39.9202ZM16.3164 16.0002H10.4764C12.3941 12.6547 15.466 10.1232 19.1164 8.88024C17.9164 11.1002 17.0164 13.5002 16.3164 16.0002ZM10.4764 32.0002H16.3164C17.0164 34.5002 17.9164 36.9002 19.1164 39.1202C15.4737 37.8636 12.4061 35.3357 10.4764 32.0002ZM8.83641 28.0002C8.51641 26.7202 8.31641 25.3802 8.31641 24.0002C8.31641 22.6202 8.51641 21.2802 8.83641 20.0002H15.5964C15.4364 21.3202 15.3164 22.6402 15.3164 24.0002C15.3164 25.3602 15.4364 26.6802 15.5964 28.0002M24.3164 8.06024C25.9764 10.4602 27.3164 13.1402 28.1364 16.0002H20.4964C21.3164 13.1402 22.6564 10.4602 24.3164 8.06024ZM38.1564 16.0002H32.2564C31.6304 13.5232 30.7036 11.132 29.4964 8.88024C33.1764 10.1402 36.2364 12.6802 38.1564 16.0002ZM24.3164 4.00024C13.2564 4.00024 4.31641 13.0002 4.31641 24.0002C4.31641 29.3046 6.42354 34.3917 10.1743 38.1424C12.0314 39.9995 14.2362 41.4727 16.6627 42.4778C19.0892 43.4829 21.69 44.0002 24.3164 44.0002C29.6207 44.0002 34.7078 41.8931 38.4585 38.1424C42.2093 34.3917 44.3164 29.3046 44.3164 24.0002C44.3164 21.3738 43.7991 18.7731 42.794 16.3466C41.7889 13.9201 40.3157 11.7153 38.4585 9.85811C36.6014 8.00094 34.3966 6.52775 31.9701 5.52265C29.5436 4.51756 26.9428 4.00024 24.3164 4.00024Z" fill="#FF002E"/>
</g>
</svg>
